<?xml version="1.0" encoding="UTF-8"?>
<svg id="Layer_1" data-name="Layer 1" xmlns="http://www.w3.org/2000/svg" viewBox="0 0 86.2 50.49">
  <defs>
    <style>
      .cls-1 {
        fill: #fff;
      }
    </style>
  </defs>
  <g>
    <path class="cls-1" d="M4.39,43.94h1.35v-11.4h-3.35v2.28H.4v-3.86h13.1v3.86h-1.99v-2.28h-3.88v11.4h1.51v1.66h-4.76v-1.66Z"/>
    <path class="cls-1" d="M15.28,30.96h4.69v1.67h-1.4v11.31h1.4v1.66h-4.69v-1.66h1.4v-11.31h-1.4v-1.67Z"/>
    <path class="cls-1" d="M22.75,30.96h4.77v1.67h-1.47v11.31h5.07c.1,0,.21-.02.31-.07.1-.05.2-.11.28-.19s.15-.17.2-.27c.05-.1.08-.2.08-.3v-1.84h1.84v4.34h-11.08v-1.66h1.4v-11.31h-1.4v-1.67Z"/>
    <path class="cls-1" d="M35.31,30.96h4.77v1.67h-1.47v11.31h5.07c.1,0,.21-.02.31-.07.1-.05.2-.11.28-.19s.15-.17.2-.27c.05-.1.08-.2.08-.3v-1.84h1.84v4.34h-11.08v-1.66h1.4v-11.31h-1.4v-1.67Z"/>
    <path class="cls-1" d="M47.87,30.96h10.53v4.14h-1.99v-2.47h-5.24v4.68h4.41v1.66h-4.41v4.96h5.24v-2.47h1.99v4.13h-10.53v-1.66h1.4v-11.31h-1.4v-1.67Z"/>
    <path class="cls-1" d="M60.33,30.96h6.12c.65,0,1.25.08,1.81.26.55.17,1.03.42,1.43.75.4.33.72.75.95,1.24.23.5.34,1.07.34,1.71,0,.37-.07.73-.2,1.09-.13.36-.32.69-.55,1-.24.31-.52.58-.84.82-.32.24-.68.42-1.06.55.16.07.32.17.49.3s.32.29.46.48c.15.19.28.41.4.65.12.24.21.5.29.78l.81,3.19h1.27l.02,1.83h-2.86l-1.09-4.45c-.2-.8-.51-1.39-.92-1.76-.41-.38-.97-.57-1.68-.57h-1.89v5.12h1.47v1.66h-4.77v-1.66h1.4v-11.31h-1.4v-1.67ZM63.63,32.63v4.61h2.82c.37,0,.71-.05,1.01-.14.31-.1.57-.24.79-.43.22-.19.4-.43.52-.72.13-.29.19-.62.19-1,0-.73-.22-1.29-.66-1.7-.44-.41-1.14-.61-2.09-.61h-2.59Z"/>
    <path class="cls-1" d="M73.57,30.96h4.77v1.67h-1.4l2.76,4.7,2.96-4.7h-1.53v-1.67h4.77v1.67h-1.25l-4.13,6.24v5.07h1.51v1.66h-4.77v-1.66h1.35v-5.12l-3.9-6.19h-1.14v-1.67Z"/>
  </g>
  <g>
    <path class="cls-1" d="M13.04,26.96c-1.62,0-3.02-.29-4.2-.87-1.18-.58-2.08-1.43-2.69-2.56-.61-1.12-.9-2.52-.87-4.17l.04-.11h.84c0,2.17.59,3.83,1.77,4.98s2.88,1.73,5.11,1.73c1.24,0,2.35-.29,3.33-.87s1.75-1.4,2.31-2.46c.56-1.06.84-2.32.84-3.77V.99h-3.4V0h7.36v.99h-2.98v17.89c0,1.64-.32,3.07-.95,4.28-.63,1.21-1.51,2.15-2.64,2.81-1.13.66-2.42,1-3.88,1Z"/>
    <polygon class="cls-1" points="51.79 25.6 42.21 0 41 0 31.43 25.6 29.48 25.6 29.48 26.58 35.12 26.58 35.12 25.6 32.51 25.6 35.47 17.65 41.06 2.68 41.55 1.19 41.66 1.19 42.17 2.68 48.1 18.64 50.71 25.6 48.1 25.6 48.1 26.58 53.74 26.58 53.74 25.6 51.79 25.6"/>
    <path class="cls-1" d="M65.36,26.58v-.99h2.98v-9.11L58.94.99h-2.17v-.99h5.95v.99h-2.57l8.2,13.78.47.91.02-.04.47-.88L77.54.99h-2.57v-.99h5.95v.99h-2.19l-9.38,15.5v9.11h2.98v.99h-6.96Z"/>
  </g>
</svg>