<?xml version="1.0" encoding="UTF-8"?>
<svg xmlns="http://www.w3.org/2000/svg" viewBox="0 0 80 50">
  <defs>
    <style>
      .cls-1 {
        fill: #fff;
      }
    </style>
  </defs>
  <g transform="translate(3.5,1.5)">
    <g>
      <path class="cls-1" d="M3.73,41.65h1.15v-9.72h-2.85v1.94H.34v-3.29h11.14v3.29h-1.69v-1.94h-3.29v9.72h1.29v1.42H3.73v-1.42Z"/>
      <path class="cls-1" d="M12.99,30.58h3.99v1.42h-1.19v9.64h1.19v1.42h-3.99v-1.42h1.19v-9.64h-1.19v-1.42Z"/>
      <path class="cls-1" d="M19.33,30.58h4.05v1.42h-1.25v9.64h4.31c.09,0,.18-.02.26-.06.09-.04.17-.09.24-.16.07-.07.13-.14.17-.23s.07-.17.07-.26v-1.57h1.56v3.7h-9.41v-1.42h1.19v-9.64h-1.19v-1.42Z"/>
      <path class="cls-1" d="M30.01,30.58h4.05v1.42h-1.25v9.64h4.31c.09,0,.18-.02.26-.06s.17-.09.24-.16c.07-.07.13-.14.17-.23.04-.08.07-.17.07-.26v-1.57h1.57v3.7h-9.42v-1.42h1.19v-9.64h-1.19v-1.42Z"/>
      <path class="cls-1" d="M40.68,30.58h8.94v3.53h-1.69v-2.11h-4.46v4h3.75v1.42h-3.75v4.23h4.46v-2.11h1.69v3.53h-8.94v-1.42h1.19v-9.64h-1.19v-1.42Z"/>
      <path class="cls-1" d="M51.27,30.58h5.2c.55,0,1.07.07,1.54.22s.88.36,1.22.64c.34.28.61.64.8,1.06.19.42.29.91.29,1.46,0,.31-.06.62-.17.93s-.27.59-.47.85-.44.49-.71.7c-.28.2-.57.36-.9.47.14.06.28.15.42.26.14.11.27.25.4.41.12.16.24.35.34.55s.18.43.24.66l.69,2.72h1.08l.02,1.57h-2.43l-.93-3.8c-.17-.68-.43-1.18-.78-1.5-.35-.32-.83-.48-1.43-.48h-1.61v4.37h1.25v1.42h-4.05v-1.42h1.19v-9.64h-1.19v-1.42ZM54.07,32v3.93h2.4c.31,0,.6-.04.86-.12.26-.08.49-.21.67-.37s.34-.37.45-.61c.11-.24.16-.53.16-.85,0-.62-.19-1.1-.56-1.45-.37-.35-.97-.52-1.78-.52h-2.2Z"/>
      <path class="cls-1" d="M62.52,30.58h4.05v1.42h-1.19l2.35,4.01,2.51-4.01h-1.3v-1.42h4.05v1.42h-1.06l-3.51,5.32v4.32h1.28v1.42h-4.05v-1.42h1.14v-4.37l-3.31-5.28h-.97v-1.42Z"/>
    </g>
    <path class="cls-1" d="M8.1,26.96c-1.62,0-3.02-.29-4.2-.87-1.18-.58-2.08-1.43-2.69-2.56-.61-1.12-.9-2.52-.87-4.17l.04-.11h.84c0,2.17.59,3.83,1.77,4.98s2.88,1.73,5.11,1.73c1.24,0,2.35-.29,3.33-.87s1.75-1.4,2.31-2.46c.56-1.06.84-2.32.84-3.77V.99h-3.4v-.99h7.36v.99h-2.98v17.89c0,1.64-.32,3.07-.95,4.28-.63,1.21-1.51,2.15-2.64,2.81-1.13.66-2.42,1-3.88,1Z"/>
    <polygon class="cls-1" points="44.89 25.79 35.31 .19 34.1 .19 24.54 25.79 22.58 25.79 22.58 26.77 28.23 26.77 28.23 25.79 25.62 25.79 28.57 17.85 34.16 2.88 34.65 1.38 34.76 1.38 35.27 2.88 41.21 18.83 43.82 25.79 41.21 25.79 41.21 26.77 46.85 26.77 46.85 25.79 44.89 25.79"/>
    <path class="cls-1" d="M57.45,26.58v-.99h2.98v-9.11L51.02.99h-2.17V0h5.95v.99h-2.57l8.2,13.78.47.91.02-.04.47-.88L69.62.99h-2.57V0h5.95v.99h-2.19l-9.38,15.5v9.11h2.98v.99h-6.96Z"/>
  </g>
</svg>
